<?xml version="1.0" encoding="utf-8"?>
<!-- Generator: Adobe Illustrator 16.0.0, SVG Export Plug-In . SVG Version: 6.00 Build 0)  -->
<!DOCTYPE svg PUBLIC "-//W3C//DTD SVG 1.1//EN" "http://www.w3.org/Graphics/SVG/1.1/DTD/svg11.dtd">
<svg version="1.1" id="Layer_1" xmlns="http://www.w3.org/2000/svg" xmlns:xlink="http://www.w3.org/1999/xlink" x="0px" y="0px"
	 width="243px" height="221px" viewBox="0 0 243 221" enable-background="new 0 0 243 221" xml:space="preserve">
<path fill="#FFFFFF" d="M0.442,171.488c0.736-1.178,1.915-1.252,3.535-0.221c36.818,21.36,76.876,32.041,120.174,32.041
	c28.865,0,57.363-5.377,85.492-16.132c0.736-0.294,1.805-0.735,3.203-1.325c1.399-0.59,2.394-1.031,2.982-1.326
	c2.209-0.883,3.939-0.441,5.191,1.326s0.847,3.389-1.215,4.861c-2.65,1.915-6.039,4.125-10.162,6.629
	c-12.666,7.514-26.804,13.332-42.414,17.457c-15.611,4.125-30.854,6.188-45.729,6.188c-22.975,0-44.697-4.014-65.168-12.043
	c-20.471-8.028-38.807-19.336-55.006-33.92C0.442,174.287,0,173.551,0,172.814C0,172.372,0.147,171.93,0.442,171.488z
	 M66.936,108.511c0-10.165,2.503-18.856,7.511-26.075c5.007-7.219,11.855-12.669,20.544-16.352
	c7.953-3.388,17.746-5.819,29.381-7.292c3.976-0.442,10.456-1.031,19.44-1.768v-3.756c0-9.429-1.031-15.763-3.094-19.004
	c-3.093-4.419-7.953-6.629-14.58-6.629h-1.767c-4.86,0.441-9.057,1.988-12.592,4.64c-3.535,2.652-5.817,6.334-6.848,11.049
	c-0.589,2.946-2.062,4.64-4.418,5.083l-25.405-3.094c-2.503-0.589-3.755-1.915-3.755-3.978c0-0.442,0.074-0.958,0.221-1.547
	c2.503-13.111,8.652-22.834,18.446-29.168c9.793-6.334,21.244-9.87,34.352-10.607h5.522c16.789,0,29.896,4.346,39.321,13.038
	c1.479,1.48,2.845,3.068,4.087,4.751c1.252,1.694,2.246,3.204,2.982,4.53c0.736,1.326,1.398,3.241,1.988,5.745
	c0.59,2.504,1.031,4.235,1.326,5.193c0.295,0.957,0.515,3.02,0.662,6.187c0.147,3.167,0.221,5.045,0.221,5.635v53.476
	c0,3.83,0.553,7.329,1.658,10.496c1.104,3.167,2.172,5.451,3.202,6.85s2.724,3.646,5.081,6.739c0.883,1.326,1.325,2.505,1.325,3.537
	c0,1.178-0.589,2.209-1.767,3.093c-12.225,10.606-18.852,16.352-19.883,17.235c-1.767,1.326-3.902,1.474-6.406,0.442
	c-2.062-1.769-3.865-3.462-5.412-5.082c-1.547-1.621-2.651-2.799-3.313-3.536c-0.663-0.736-1.731-2.173-3.202-4.309
	c-1.474-2.137-2.505-3.572-3.094-4.309c-8.248,8.986-16.347,14.584-24.3,16.793c-5.008,1.474-11.193,2.211-18.557,2.211
	c-11.34,0-20.654-3.5-27.944-10.496C70.581,131.234,66.936,121.327,66.936,108.511z M104.932,104.091
	c0,5.746,1.436,10.349,4.308,13.812c2.871,3.462,6.737,5.192,11.597,5.192c0.442,0,1.068-0.073,1.878-0.221
	c0.811-0.147,1.362-0.222,1.657-0.222c6.185-1.619,10.971-5.598,14.358-11.931c1.621-2.8,2.836-5.856,3.646-9.171
	c0.81-3.314,1.252-6.003,1.325-8.065c0.074-2.062,0.111-5.451,0.111-10.165v-5.524c-8.543,0-15.022,0.589-19.44,1.768
	C111.412,83.246,104.932,91.422,104.932,104.091z M197.714,175.245c0.294-0.59,0.736-1.179,1.325-1.769
	c3.682-2.504,7.216-4.199,10.604-5.082c5.597-1.474,11.045-2.283,16.348-2.431c1.473-0.147,2.871-0.073,4.197,0.222
	c6.627,0.588,10.604,1.693,11.929,3.313c0.589,0.884,0.884,2.21,0.884,3.978v1.547c0,5.156-1.398,11.233-4.197,18.23
	c-2.799,6.998-6.701,12.632-11.707,16.905c-0.738,0.589-1.4,0.883-1.99,0.883c-0.293,0-0.588-0.073-0.883-0.222
	c-0.884-0.44-1.104-1.252-0.662-2.43c5.448-12.816,8.174-21.729,8.174-26.738c0-1.619-0.295-2.799-0.885-3.535
	c-1.473-1.768-5.597-2.651-12.371-2.651c-2.504,0-5.449,0.147-8.836,0.442c-3.682,0.441-7.068,0.884-10.162,1.326
	c-0.883,0-1.473-0.148-1.767-0.442c-0.295-0.295-0.368-0.59-0.221-0.884C197.493,175.76,197.566,175.539,197.714,175.245z"/>
</svg>
