<?xml version="1.0" encoding="utf-8"?>
<!-- Generator: Adobe Illustrator 16.0.0, SVG Export Plug-In . SVG Version: 6.00 Build 0)  -->
<!DOCTYPE svg PUBLIC "-//W3C//DTD SVG 1.1//EN" "http://www.w3.org/Graphics/SVG/1.1/DTD/svg11.dtd">
<svg version="1.1" id="Layer_1" xmlns="http://www.w3.org/2000/svg" xmlns:xlink="http://www.w3.org/1999/xlink" x="0px" y="0px"
	 width="120px" height="36px" viewBox="0 0.042 120 36" enable-background="new 0 0.042 120 36" xml:space="preserve">
<g>
	<defs>
		<rect id="SVGID_1_" y="0.042" width="120" height="36"/>
	</defs>
	<clipPath id="SVGID_2_">
		<use xlink:href="#SVGID_1_"  overflow="visible"/>
	</clipPath>
	<g clip-path="url(#SVGID_2_)">
		<path fill="#A6A6A6" d="M115.73,36.041H4.204C1.886,36.041,0,34.127,0,31.782V4.295C0,1.95,1.886,0.042,4.204,0.042H115.73
			c2.316,0,4.27,1.908,4.27,4.253v27.487C120,34.127,118.047,36.041,115.73,36.041z"/>
		<path d="M119.141,31.783c0,1.904-1.524,3.447-3.408,3.447H4.204c-1.884,0-3.413-1.543-3.413-3.447V4.294
			c0-1.904,1.529-3.452,3.413-3.452H115.73c1.886,0,3.408,1.548,3.408,3.452L119.141,31.783z"/>
		<path fill="#FFFFFF" d="M26.78,17.847c-0.025-2.9,2.346-4.312,2.455-4.377c-1.343-1.983-3.425-2.253-4.157-2.275
			c-1.749-0.186-3.444,1.06-4.335,1.06c-0.909,0-2.28-1.042-3.758-1.011c-1.902,0.03-3.682,1.145-4.658,2.876
			c-2.014,3.531-0.512,8.719,1.418,11.573c0.965,1.397,2.093,2.958,3.569,2.903c1.445-0.061,1.984-0.932,3.728-0.932
			c1.727,0,2.233,0.932,3.739,0.896c1.55-0.025,2.526-1.404,3.458-2.814c1.115-1.602,1.563-3.18,1.581-3.26
			C29.784,22.473,26.81,21.324,26.78,17.847z"/>
		<path fill="#FFFFFF" d="M23.936,9.317c0.777-0.983,1.309-2.322,1.161-3.68c-1.124,0.051-2.53,0.788-3.34,1.75
			c-0.716,0.848-1.356,2.237-1.191,3.544C21.829,11.026,23.125,10.286,23.936,9.317z"/>
		<path fill="#FFFFFF" d="M47.685,28.396h-2.019l-1.106-3.519h-3.844l-1.053,3.519h-1.965l3.808-11.978h2.352L47.685,28.396z
			 M44.227,23.401l-1-3.128c-0.105-0.319-0.304-1.071-0.596-2.256h-0.036c-0.117,0.509-0.304,1.262-0.562,2.256l-0.982,3.128H44.227
			z"/>
		<path fill="#FFFFFF" d="M57.478,23.971c0,1.469-0.392,2.631-1.176,3.482c-0.702,0.759-1.574,1.138-2.615,1.138
			c-1.124,0-1.931-0.409-2.422-1.226h-0.036v4.549h-1.895v-9.313c0-0.923-0.024-1.871-0.07-2.842h1.667l0.106,1.368h0.036
			c0.632-1.031,1.591-1.546,2.878-1.546c1.006,0,1.846,0.402,2.518,1.207C57.141,21.596,57.478,22.656,57.478,23.971z
			 M55.546,24.041c0-0.84-0.187-1.533-0.562-2.078c-0.41-0.569-0.96-0.854-1.65-0.854c-0.467,0-0.893,0.158-1.272,0.471
			c-0.38,0.314-0.629,0.727-0.746,1.235c-0.059,0.237-0.088,0.433-0.088,0.585v1.439c0,0.629,0.19,1.159,0.57,1.592
			c0.38,0.434,0.875,0.648,1.483,0.648c0.714,0,1.269-0.278,1.667-0.834C55.348,25.688,55.546,24.954,55.546,24.041z"/>
		<path fill="#FFFFFF" d="M67.288,23.971c0,1.469-0.392,2.631-1.177,3.482c-0.701,0.759-1.574,1.138-2.614,1.138
			c-1.124,0-1.931-0.409-2.421-1.226H61.04v4.549h-1.895v-9.313c0-0.923-0.024-1.871-0.07-2.842h1.667l0.106,1.368h0.035
			c0.631-1.031,1.59-1.546,2.878-1.546c1.005,0,1.846,0.402,2.519,1.207C66.951,21.596,67.288,22.656,67.288,23.971z M65.357,24.041
			c0-0.84-0.188-1.533-0.563-2.078c-0.41-0.569-0.959-0.854-1.648-0.854c-0.469,0-0.893,0.158-1.273,0.471
			c-0.381,0.314-0.629,0.727-0.745,1.235c-0.058,0.237-0.088,0.433-0.088,0.585v1.439c0,0.629,0.19,1.159,0.569,1.592
			c0.38,0.432,0.874,0.648,1.484,0.648c0.713,0,1.27-0.278,1.666-0.834C65.158,25.688,65.357,24.954,65.357,24.041z"/>
		<path fill="#FFFFFF" d="M78.257,25.037c0,1.019-0.349,1.848-1.051,2.487c-0.771,0.699-1.843,1.048-3.222,1.048
			c-1.273,0-2.293-0.248-3.066-0.746l0.439-1.599c0.832,0.509,1.744,0.765,2.739,0.765c0.714,0,1.27-0.164,1.669-0.489
			c0.396-0.326,0.596-0.764,0.596-1.309c0-0.486-0.164-0.896-0.492-1.228c-0.326-0.332-0.871-0.641-1.632-0.926
			c-2.071-0.783-3.105-1.928-3.105-3.436c0-0.984,0.362-1.792,1.089-2.419c0.723-0.629,1.688-0.943,2.896-0.943
			c1.077,0,1.971,0.19,2.685,0.569l-0.474,1.564c-0.667-0.367-1.421-0.551-2.265-0.551c-0.666,0-1.188,0.167-1.561,0.498
			c-0.315,0.296-0.474,0.657-0.474,1.084c0,0.474,0.181,0.864,0.543,1.173c0.315,0.284,0.89,0.592,1.722,0.924
			c1.018,0.415,1.765,0.9,2.246,1.457C78.018,23.515,78.257,24.209,78.257,25.037z"/>
		<path fill="#FFFFFF" d="M84.522,21.199h-2.089v4.193c0,1.066,0.368,1.6,1.105,1.6c0.34,0,0.62-0.03,0.842-0.09l0.053,1.457
			c-0.373,0.142-0.865,0.213-1.474,0.213c-0.749,0-1.333-0.231-1.755-0.693c-0.421-0.463-0.633-1.238-0.633-2.328v-4.354h-1.244
			v-1.439h1.244v-1.582l1.861-0.568v2.15h2.089V21.199z"/>
		<path fill="#FFFFFF" d="M93.947,24.006c0,1.328-0.375,2.418-1.123,3.27c-0.785,0.878-1.827,1.315-3.125,1.315
			c-1.252,0-2.248-0.421-2.992-1.261c-0.742-0.841-1.114-1.902-1.114-3.182c0-1.338,0.382-2.434,1.149-3.286
			c0.766-0.853,1.799-1.28,3.097-1.28c1.252,0,2.259,0.421,3.019,1.262C93.585,21.66,93.947,22.715,93.947,24.006z M91.981,24.068
			c0-0.797-0.168-1.48-0.509-2.05c-0.396-0.688-0.965-1.033-1.701-1.033c-0.762,0-1.34,0.345-1.738,1.033
			c-0.34,0.571-0.508,1.265-0.508,2.085c0,0.797,0.168,1.48,0.508,2.049c0.41,0.689,0.982,1.033,1.721,1.033
			c0.725,0,1.293-0.351,1.702-1.051C91.805,25.555,91.981,24.863,91.981,24.068z"/>
		<path fill="#FFFFFF" d="M100.107,21.447c-0.188-0.035-0.387-0.054-0.598-0.054c-0.666,0-1.182,0.255-1.545,0.765
			c-0.314,0.45-0.473,1.02-0.473,1.706v4.531h-1.895l0.018-5.917c0-0.995-0.023-1.901-0.071-2.719h1.651l0.068,1.652h0.053
			c0.2-0.567,0.516-1.025,0.947-1.367c0.422-0.309,0.879-0.463,1.37-0.463c0.175,0,0.333,0.012,0.474,0.035V21.447z"/>
		<path fill="#FFFFFF" d="M108.583,23.668c0,0.344-0.022,0.635-0.069,0.871h-5.686c0.023,0.854,0.297,1.506,0.824,1.955
			c0.479,0.402,1.1,0.604,1.861,0.604c0.842,0,1.609-0.136,2.299-0.409l0.297,1.332c-0.807,0.356-1.76,0.534-2.858,0.534
			c-1.323,0-2.36-0.395-3.117-1.182c-0.754-0.788-1.131-1.845-1.131-3.172c0-1.302,0.351-2.387,1.054-3.251
			c0.736-0.924,1.731-1.386,2.982-1.386c1.229,0,2.16,0.462,2.792,1.386C108.332,21.684,108.583,22.592,108.583,23.668z
			 M106.775,23.171c0.013-0.569-0.11-1.061-0.367-1.476c-0.328-0.533-0.832-0.8-1.51-0.8c-0.621,0-1.125,0.261-1.51,0.782
			c-0.314,0.415-0.503,0.912-0.561,1.492L106.775,23.171L106.775,23.171z"/>
		<path fill="#FFFFFF" d="M43.6,9.05c0,1.06-0.314,1.856-0.94,2.392c-0.581,0.494-1.405,0.742-2.474,0.742
			c-0.529,0-0.983-0.023-1.362-0.07V6.326c0.495-0.081,1.028-0.123,1.604-0.123c1.018,0,1.785,0.224,2.302,0.672
			C43.309,7.382,43.6,8.106,43.6,9.05z M42.618,9.076c0-0.687-0.18-1.213-0.539-1.581c-0.359-0.366-0.883-0.55-1.574-0.55
			c-0.293,0-0.543,0.02-0.75,0.061v4.4c0.114,0.018,0.324,0.026,0.629,0.026c0.713,0,1.263-0.201,1.651-0.602
			S42.618,9.845,42.618,9.076z"/>
		<path fill="#FFFFFF" d="M48.808,9.975c0,0.652-0.184,1.187-0.552,1.606c-0.386,0.431-0.897,0.646-1.535,0.646
			c-0.615,0-1.104-0.206-1.47-0.62c-0.364-0.414-0.546-0.935-0.546-1.563c0-0.657,0.188-1.196,0.564-1.615s0.883-0.628,1.521-0.628
			c0.615,0,1.109,0.206,1.484,0.619C48.629,8.823,48.808,9.341,48.808,9.975z M47.842,10.006c0-0.392-0.083-0.728-0.25-1.007
			c-0.195-0.338-0.474-0.507-0.835-0.507c-0.374,0-0.659,0.169-0.854,0.507c-0.167,0.28-0.25,0.621-0.25,1.024
			c0,0.391,0.083,0.727,0.25,1.007c0.202,0.338,0.482,0.508,0.845,0.508c0.355,0,0.635-0.172,0.835-0.517
			C47.755,10.735,47.842,10.397,47.842,10.006z"/>
		<path fill="#FFFFFF" d="M55.791,7.889l-1.311,4.243h-0.853l-0.543-1.842c-0.138-0.46-0.25-0.917-0.337-1.371H52.73
			c-0.081,0.466-0.193,0.922-0.337,1.371l-0.577,1.842h-0.863L49.72,7.889h0.957l0.474,2.017c0.115,0.477,0.209,0.932,0.285,1.362
			h0.017c0.069-0.354,0.184-0.807,0.346-1.353l0.595-2.025h0.759l0.57,1.982c0.138,0.483,0.25,0.949,0.336,1.397h0.026
			c0.063-0.437,0.158-0.902,0.285-1.397l0.508-1.982L55.791,7.889L55.791,7.889z"/>
		<path fill="#FFFFFF" d="M60.621,12.131h-0.932v-2.43c0-0.749-0.281-1.124-0.844-1.124c-0.277,0-0.5,0.103-0.673,0.309
			C58,9.093,57.913,9.336,57.913,9.614v2.517h-0.932v-3.03c0-0.373-0.012-0.776-0.034-1.214h0.818L57.81,8.55h0.026
			c0.108-0.206,0.271-0.376,0.483-0.512C58.571,7.88,58.854,7.8,59.163,7.8c0.391,0,0.716,0.128,0.975,0.384
			c0.322,0.314,0.483,0.783,0.483,1.406V12.131z"/>
		<path fill="#FFFFFF" d="M63.189,12.131h-0.931V5.942h0.931V12.131z"/>
		<path fill="#FFFFFF" d="M68.674,9.975c0,0.652-0.184,1.187-0.553,1.606c-0.385,0.431-0.896,0.646-1.534,0.646
			c-0.616,0-1.106-0.206-1.471-0.62s-0.546-0.935-0.546-1.563c0-0.657,0.188-1.196,0.564-1.615s0.883-0.628,1.521-0.628
			c0.616,0,1.109,0.206,1.484,0.619C68.495,8.823,68.674,9.341,68.674,9.975z M67.707,10.006c0-0.392-0.084-0.728-0.25-1.007
			c-0.195-0.338-0.475-0.507-0.835-0.507c-0.375,0-0.659,0.169-0.854,0.507c-0.166,0.28-0.25,0.621-0.25,1.024
			c0,0.391,0.084,0.727,0.25,1.007c0.202,0.338,0.482,0.508,0.846,0.508c0.355,0,0.634-0.172,0.835-0.517
			C67.621,10.735,67.707,10.397,67.707,10.006z"/>
		<path fill="#FFFFFF" d="M73.182,12.131h-0.836l-0.069-0.489H72.25c-0.285,0.39-0.693,0.585-1.223,0.585
			c-0.396,0-0.717-0.128-0.957-0.384c-0.219-0.232-0.328-0.521-0.328-0.864c0-0.519,0.213-0.914,0.643-1.187
			c0.429-0.274,1.031-0.408,1.807-0.401v-0.08c0-0.559-0.289-0.838-0.869-0.838c-0.414,0-0.778,0.105-1.093,0.314L70.04,8.169
			c0.39-0.244,0.87-0.366,1.438-0.366c1.095,0,1.644,0.585,1.644,1.755v1.563C73.121,11.544,73.143,11.881,73.182,12.131z
			 M72.215,10.673v-0.654c-1.027-0.018-1.541,0.268-1.541,0.855c0,0.222,0.059,0.387,0.179,0.498c0.12,0.11,0.272,0.166,0.455,0.166
			c0.204,0,0.396-0.066,0.569-0.196c0.176-0.131,0.283-0.298,0.323-0.502C72.21,10.793,72.215,10.737,72.215,10.673z"/>
		<path fill="#FFFFFF" d="M78.476,12.131h-0.827l-0.043-0.681H77.58c-0.265,0.519-0.715,0.777-1.346,0.777
			c-0.506,0-0.926-0.201-1.26-0.602c-0.333-0.401-0.499-0.922-0.499-1.563c0-0.687,0.181-1.243,0.543-1.667
			C75.369,8,75.8,7.802,76.313,7.802c0.563,0,0.956,0.191,1.18,0.576h0.018V5.942h0.934v5.046
			C78.443,11.401,78.453,11.782,78.476,12.131z M77.51,10.342V9.635c0-0.122-0.008-0.221-0.025-0.297
			c-0.053-0.227-0.165-0.417-0.337-0.571c-0.173-0.154-0.382-0.231-0.623-0.231c-0.348,0-0.62,0.14-0.819,0.419
			c-0.198,0.28-0.299,0.637-0.299,1.074c0,0.419,0.096,0.759,0.286,1.021c0.202,0.279,0.474,0.418,0.814,0.418
			c0.306,0,0.55-0.116,0.735-0.349C77.422,10.904,77.51,10.645,77.51,10.342z"/>
		<path fill="#FFFFFF" d="M86.443,9.975c0,0.652-0.185,1.187-0.553,1.606c-0.386,0.431-0.896,0.646-1.535,0.646
			c-0.614,0-1.104-0.206-1.471-0.62c-0.363-0.414-0.546-0.935-0.546-1.563c0-0.657,0.188-1.196,0.564-1.615
			c0.376-0.418,0.884-0.628,1.522-0.628c0.614,0,1.109,0.206,1.482,0.619C86.264,8.823,86.443,9.341,86.443,9.975z M85.478,10.006
			c0-0.392-0.084-0.728-0.25-1.007c-0.196-0.338-0.474-0.507-0.837-0.507c-0.373,0-0.657,0.169-0.854,0.507
			c-0.168,0.28-0.25,0.621-0.25,1.024c0,0.391,0.084,0.727,0.25,1.007c0.201,0.338,0.482,0.508,0.846,0.508
			c0.355,0,0.635-0.172,0.836-0.517C85.391,10.735,85.478,10.397,85.478,10.006z"/>
		<path fill="#FFFFFF" d="M91.451,12.131h-0.93v-2.43c0-0.749-0.281-1.124-0.846-1.124c-0.277,0-0.5,0.103-0.672,0.309
			c-0.173,0.206-0.259,0.449-0.259,0.727v2.517h-0.933v-3.03c0-0.373-0.011-0.776-0.033-1.214h0.818l0.043,0.663h0.025
			c0.109-0.206,0.271-0.376,0.483-0.512C89.402,7.88,89.685,7.8,89.994,7.8c0.391,0,0.716,0.128,0.975,0.384
			c0.322,0.314,0.482,0.783,0.482,1.406V12.131z"/>
		<path fill="#FFFFFF" d="M97.721,8.595h-1.025v2.061c0,0.524,0.182,0.786,0.543,0.786c0.167,0,0.306-0.014,0.415-0.044l0.024,0.715
			c-0.185,0.07-0.426,0.105-0.725,0.105c-0.367,0-0.654-0.113-0.861-0.34c-0.207-0.227-0.311-0.608-0.311-1.144v-2.14h-0.612V7.889
			h0.612V7.111l0.913-0.279v1.056h1.026V8.595L97.721,8.595z"/>
		<path fill="#FFFFFF" d="M102.652,12.131h-0.932V9.719c0-0.76-0.281-1.141-0.845-1.141c-0.433,0-0.728,0.221-0.888,0.662
			c-0.028,0.093-0.045,0.206-0.045,0.339v2.551h-0.93V5.942h0.93v2.557h0.019c0.293-0.465,0.714-0.697,1.259-0.697
			c0.385,0,0.704,0.127,0.959,0.384c0.314,0.319,0.473,0.794,0.473,1.423V12.131z"/>
		<path fill="#FFFFFF" d="M107.74,9.81c0,0.169-0.014,0.312-0.035,0.427h-2.794c0.013,0.419,0.146,0.739,0.405,0.96
			c0.235,0.198,0.541,0.297,0.914,0.297c0.414,0,0.789-0.066,1.129-0.201l0.146,0.655c-0.398,0.175-0.865,0.262-1.406,0.262
			c-0.648,0-1.16-0.194-1.529-0.581c-0.372-0.387-0.557-0.907-0.557-1.558c0-0.64,0.172-1.173,0.519-1.598
			c0.36-0.453,0.848-0.68,1.464-0.68c0.604,0,1.061,0.227,1.37,0.68C107.616,8.835,107.74,9.28,107.74,9.81z M106.852,9.565
			c0.006-0.28-0.056-0.521-0.182-0.724c-0.162-0.262-0.408-0.394-0.74-0.394c-0.305,0-0.553,0.128-0.742,0.384
			c-0.154,0.205-0.246,0.448-0.276,0.733H106.852z"/>
	</g>
</g>
</svg>
