<?xml version="1.0" encoding="utf-8"?>
<!-- Generator: Adobe Illustrator 16.0.0, SVG Export Plug-In . SVG Version: 6.00 Build 0)  -->
<!DOCTYPE svg PUBLIC "-//W3C//DTD SVG 1.1//EN" "http://www.w3.org/Graphics/SVG/1.1/DTD/svg11.dtd">
<svg version="1.1" id="Layer_1" xmlns="http://www.w3.org/2000/svg" xmlns:xlink="http://www.w3.org/1999/xlink" x="0px" y="0px"
	 width="185px" height="215px" viewBox="0 0 185 215" enable-background="new 0 0 185 215" xml:space="preserve">
<path fill="#FFFFFF" d="M132.803,0c-11.462,0.793-24.859,8.13-32.666,17.684c-7.121,8.667-12.98,21.54-10.696,34.051
	c12.523,0.39,25.463-7.122,32.961-16.837C129.417,25.854,134.725,13.061,132.803,0z"/>
<path fill="#FFFFFF" d="M178.102,72.132c-11.006-13.8-26.473-21.809-41.078-21.809c-19.283,0-27.44,9.231-40.838,9.231
	c-13.813,0-24.308-9.205-40.983-9.205c-16.38,0-33.822,10.011-44.881,27.13C-5.226,101.587-2.565,146.911,22.63,185.518
	c9.017,13.813,21.056,29.347,36.805,29.481c14.015,0.134,17.966-8.99,36.953-9.084c18.987-0.106,22.589,9.205,36.576,9.058
	c15.763-0.121,28.461-17.334,37.478-31.148c6.463-9.903,8.869-14.889,13.881-26.069C147.867,143.874,142.021,92.033,178.102,72.132z
	"/>
</svg>
