<svg width="21" height="20" viewBox="0 0 21 20" fill="none" xmlns="http://www.w3.org/2000/svg">
<path d="M5.53472 10.652H7.83666V19.6774C7.83666 19.8556 7.98827 20 8.17537 20H12.0784C12.2655 20 12.4171 19.8556 12.4171 19.6774V10.6945H15.0634C15.2354 10.6945 15.3802 10.5715 15.3998 10.4088L15.8018 7.08606C15.8128 6.99465 15.7824 6.9031 15.7182 6.83452C15.6539 6.76587 15.5619 6.72658 15.4654 6.72658H12.4172V4.64374C12.4172 4.01587 12.7722 3.69748 13.4724 3.69748C13.5722 3.69748 15.4654 3.69748 15.4654 3.69748C15.6525 3.69748 15.8041 3.55303 15.8041 3.3749V0.324968C15.8041 0.146774 15.6525 0.0023871 15.4654 0.0023871H12.7188C12.6994 0.00148387 12.6564 0 12.593 0C12.1164 0 10.4599 0.0890967 9.1514 1.23555C7.70158 2.506 7.90312 4.02716 7.95128 4.2909V6.72652H5.53472C5.34762 6.72652 5.19601 6.8709 5.19601 7.0491V10.3294C5.19601 10.5075 5.34762 10.652 5.53472 10.652Z" fill="#969595"/>
</svg>
