<svg width="68" height="28" viewBox="0 0 68 28" fill="none" xmlns="http://www.w3.org/2000/svg">
<path d="M15.92 24H3.96V17.92L19.8 10.64H19.84V8.08H19.8H18.76L19.84 5.68V0.0399976H19.8V-1.90735e-06H0.48V0.0399976V6.96L4.44 4.52V4.04H15.88V8.04L2.98023e-08 15.36L0.0400001 15.44H2.98023e-08V28H3.96H19.8V27.96H19.92V20.48L15.92 22.84V24ZM43.6263 -1.90735e-06H39.6263V2.84L33.4663 -1.90735e-06H23.9063V28H27.8663V3.96H32.5463L39.6263 7.2V28H43.6263V17.6H42.5463L43.6263 15.32V4.68V-1.90735e-06ZM65.7772 18.96L67.4572 15.32V-1.90735e-06H63.4972V13.52L51.5772 8.04V-1.90735e-06H47.6172V28H51.5772V19L63.4972 24.48V28H67.4572V21.92L51.5772 14.64V12.44L65.7772 18.96Z" fill="white"/>
</svg>
