<svg width="120" height="36" viewBox="0 0 120 36" fill="none" xmlns="http://www.w3.org/2000/svg">
<path fill-rule="evenodd" clip-rule="evenodd" d="M115.554 36H4.44608C1.99566 36 0 33.9711 0 31.5V4.5C0 2.01995 1.99566 0 4.44608 0H115.554C118.002 0 120 2.01995 120 4.5V31.5C120 33.9711 118.002 36 115.554 36Z" fill="black"/>
<path fill-rule="evenodd" clip-rule="evenodd" d="M115.554 0.720449C117.609 0.720449 119.291 2.41945 119.291 4.5V31.5C119.291 33.5805 117.62 35.2796 115.554 35.2796H4.44608C2.39082 35.2796 0.708635 33.5805 0.708635 31.5V4.5C0.708635 2.41945 2.37978 0.720449 4.44608 0.720449H115.554ZM115.554 0H4.44608C1.99566 0 0 2.02893 0 4.5V31.5C0 33.98 1.99566 36 4.44608 36H115.554C118.002 36 120 33.98 120 31.5V4.5C120 2.02893 118.002 0 115.554 0Z" fill="#A6A6A6"/>
<path d="M63.2164 11.9086C62.4151 11.9086 61.7396 11.6235 61.2053 11.0624C60.6755 10.517 60.3797 9.76518 60.3929 8.9976C60.3929 8.17839 60.6667 7.48488 61.2053 6.935C61.7373 6.3739 62.4129 6.08887 63.2142 6.08887C64.0067 6.08887 64.6823 6.3739 65.2253 6.935C65.764 7.50283 66.0377 8.19635 66.0377 8.9976C66.0289 9.81904 65.7551 10.5126 65.2253 11.0602C64.6933 11.6258 64.0178 11.9086 63.2164 11.9086ZM39.3723 11.9086C38.5886 11.9086 37.9087 11.628 37.3524 11.0737C36.8005 10.5215 36.5201 9.82353 36.5201 8.99984C36.5201 8.17615 36.8005 7.47814 37.3524 6.92602C37.8977 6.37166 38.5776 6.09111 39.3723 6.09111C39.7609 6.09111 40.1384 6.16967 40.5004 6.32902C40.8558 6.48388 41.145 6.69485 41.3592 6.95296L41.4121 7.01804L40.8139 7.61505L40.7521 7.54099C40.4143 7.13251 39.9618 6.93276 39.3635 6.93276C38.8293 6.93276 38.3635 7.12577 37.9794 7.50732C37.593 7.89111 37.3966 8.39385 37.3966 9.00208C37.3966 9.61031 37.593 10.1131 37.9794 10.4968C38.3635 10.8784 38.8293 11.0714 39.3635 11.0714C39.9331 11.0714 40.4121 10.8784 40.7852 10.4968C41.0059 10.2724 41.1428 9.95819 41.1914 9.56094H39.273V8.72154H42.0148L42.0258 8.79784C42.0457 8.93924 42.0656 9.08513 42.0656 9.21979C42.0656 9.9941 41.836 10.6203 41.3812 11.0826C40.8647 11.6303 40.1891 11.9086 39.3723 11.9086ZM71.0754 11.7896H70.2299L67.6404 7.5769L67.6625 8.3355V11.7874H66.817V6.21006H67.7817L67.8082 6.25271L70.2432 10.2208L70.2211 9.46443V6.21006H71.0754V11.7896ZM56.863 11.7896H56.0065V7.04947H54.5208V6.21006H58.3465V7.04947H56.8608V11.7896H56.863ZM53.8232 11.7896H52.9688V6.21006H53.8232V11.7896ZM49.0217 11.7896H48.1673V7.04947H46.6816V6.21006H50.5074V7.04947H49.0217V11.7896ZM46.1408 11.7806H42.8647V6.21006H46.1408V7.04947H43.7213V8.58014H45.9046V9.41056H43.7213V10.9412H46.1408V11.7806ZM61.8323 10.4856C62.2142 10.8739 62.6778 11.0692 63.2164 11.0692C63.7705 11.0692 64.2231 10.8784 64.6006 10.4856C64.9759 10.1041 65.1657 9.60358 65.1657 8.99984C65.1657 8.3961 64.9759 7.89336 64.6028 7.51405C64.2209 7.12577 63.7551 6.93051 63.2186 6.93051C62.6645 6.93051 62.212 7.12129 61.8367 7.51405C61.4614 7.8956 61.2715 8.3961 61.2715 8.99984C61.2715 9.60358 61.4592 10.1063 61.8323 10.4856Z" fill="white"/>
<path fill-rule="evenodd" clip-rule="evenodd" d="M60.3135 19.5802C58.2273 19.5802 56.5363 21.1894 56.5363 23.4091C56.5363 25.6086 58.2383 27.2381 60.3135 27.2381C62.3996 27.2381 64.0906 25.6176 64.0906 23.4091C64.0906 21.1894 62.3996 19.5802 60.3135 19.5802ZM60.3135 25.7209C59.1721 25.7209 58.1898 24.7603 58.1898 23.4002C58.1898 22.0199 59.1743 21.0795 60.3135 21.0795C61.4548 21.0795 62.4372 22.0199 62.4372 23.4002C62.4394 24.7692 61.4548 25.7209 60.3135 25.7209ZM52.0725 19.5802C49.9864 19.5802 48.2953 21.1894 48.2953 23.4091C48.2953 25.6086 49.9974 27.2381 52.0725 27.2381C54.1587 27.2381 55.8497 25.6176 55.8497 23.4091C55.8497 21.1894 54.1565 19.5802 52.0725 19.5802ZM52.0725 25.7209C50.9312 25.7209 49.9488 24.7603 49.9488 23.4002C49.9488 22.0199 50.9334 21.0795 52.0725 21.0795C53.2139 21.0795 54.1962 22.0199 54.1962 23.4002C54.1962 24.7692 53.2139 25.7209 52.0725 25.7209ZM42.2664 20.7495V22.37H46.0922C45.9752 23.279 45.6794 23.95 45.2268 24.4101C44.6661 24.9802 43.8007 25.5997 42.2753 25.5997C39.9242 25.5997 38.0853 23.6695 38.0853 21.2792C38.0853 18.8889 39.9242 16.9588 42.2753 16.9588C43.5446 16.9588 44.4696 17.4682 45.1562 18.1191L46.2864 16.97C45.3328 16.0408 44.0634 15.3293 42.2841 15.3293C39.0588 15.3293 36.3523 18.0002 36.3523 21.2702C36.3523 24.5493 39.0566 27.2111 42.2841 27.2111C44.0259 27.2111 45.3328 26.6321 46.3659 25.5413C47.4189 24.4707 47.7523 22.9603 47.7523 21.7416C47.7523 21.3623 47.7236 21.0211 47.664 20.7316H42.2642C42.2664 20.7293 42.2664 20.7495 42.2664 20.7495ZM82.3761 22.0109C82.0604 21.1513 81.1067 19.5712 79.1508 19.5712C77.2125 19.5712 75.601 21.1221 75.601 23.4002C75.601 25.5503 77.1949 27.2291 79.3384 27.2291C81.0604 27.2291 82.0626 26.1585 82.4754 25.5301L81.1972 24.6593C80.7734 25.2989 80.184 25.7186 79.3473 25.7186C78.5018 25.7186 77.9101 25.3281 77.5172 24.5583L82.5527 22.4373C82.5527 22.4396 82.3761 22.0109 82.3761 22.0109ZM77.2412 23.2902C77.2015 21.8111 78.3715 21.0593 79.2082 21.0593C79.8683 21.0593 80.418 21.3892 80.6056 21.8695L77.2412 23.2902ZM73.1506 27.0002H74.8041V15.7513H73.1506V27.0002ZM70.4352 20.4308H70.3756C70.0026 19.9797 69.2939 19.5712 68.3888 19.5712C66.5102 19.5712 64.7794 21.2523 64.7794 23.4114C64.7794 25.5615 66.5013 27.2224 68.3888 27.2224C69.2829 27.2224 70.0026 26.8116 70.3756 26.3515H70.4352V26.9014C70.4352 28.3625 69.667 29.1503 68.4286 29.1503C67.4153 29.1503 66.7861 28.4096 66.53 27.7902L65.0929 28.4007C65.5057 29.4106 66.6073 30.6608 68.4263 30.6608C70.3646 30.6608 72.007 29.5004 72.007 26.6702V19.8002H70.4441V20.4308C70.4463 20.4308 70.4352 20.4308 70.4352 20.4308ZM68.5367 25.7209C67.3954 25.7209 66.4417 24.7513 66.4417 23.4114C66.4417 22.0603 67.3954 21.0817 68.5367 21.0817C69.667 21.0817 70.5434 22.0715 70.5434 23.4114C70.5545 24.7513 69.6692 25.7209 68.5367 25.7209ZM90.1181 15.7513H86.1643V27.0002H87.8178V22.7403H90.1203C91.9504 22.7403 93.7496 21.3914 93.7496 19.2503C93.7496 17.1091 91.957 15.7513 90.1181 15.7513ZM90.1667 21.1692H87.8156V17.3089H90.1667C91.4051 17.3089 92.1049 18.348 92.1049 19.2391C92.1049 20.1211 91.3963 21.1692 90.1667 21.1692ZM100.377 19.56C99.1758 19.56 97.9374 20.1009 97.4252 21.2792L98.8911 21.8987C99.2067 21.2792 99.7851 21.0682 100.397 21.0682C101.253 21.0682 102.119 21.5889 102.138 22.5181V22.6371C101.843 22.4665 101.194 22.2062 100.417 22.2062C98.8337 22.2062 97.2287 23.086 97.2287 24.7356C97.2287 26.2461 98.5268 27.2156 99.9728 27.2156C101.083 27.2156 101.695 26.7062 102.077 26.1159H102.136V26.9867H103.73V22.6775C103.73 20.671 102.264 19.56 100.377 19.56ZM100.169 25.7209C99.6284 25.7209 98.8712 25.4515 98.8712 24.7603C98.8712 23.8894 99.816 23.5595 100.622 23.5595C101.35 23.5595 101.695 23.7189 102.127 23.9388C102.008 24.9488 101.169 25.7119 100.169 25.7209ZM109.545 19.8002L107.646 24.6795H107.587L105.62 19.8002H103.84L106.792 26.6209L105.11 30.4116H106.832L111.373 19.8002H109.545ZM94.6613 27.0002H96.3148V15.7513H94.6613V27.0002Z" fill="white"/>
<path fill-rule="evenodd" clip-rule="evenodd" d="M9.23657 6.78033C8.98049 7.06087 8.83258 7.48955 8.83258 8.05065V27.9516C8.83258 28.5127 8.98049 28.9414 9.2454 29.2107L9.31383 29.2713L20.2811 18.1212V17.8721L9.305 6.71973L9.23657 6.78033Z" fill="url(#paint0_linear)"/>
<path fill-rule="evenodd" clip-rule="evenodd" d="M23.9302 21.8491L20.2722 18.1302V17.8698L23.9302 14.1509L24.0097 14.2003L28.3366 16.7005C29.575 17.4097 29.575 18.5813 28.3366 19.2995L24.0097 21.7998L23.9302 21.8491Z" fill="url(#paint1_linear)"/>
<path fill-rule="evenodd" clip-rule="evenodd" d="M24.0097 21.7998L20.2722 18L9.23651 29.2197C9.6405 29.6596 10.3182 29.709 11.0754 29.2803L24.0097 21.7998Z" fill="url(#paint2_linear)"/>
<path fill-rule="evenodd" clip-rule="evenodd" d="M24.0097 14.2002L11.0754 6.73087C10.3182 6.29097 9.63829 6.35157 9.23651 6.79147L20.2722 18L24.0097 14.2002Z" fill="url(#paint3_linear)"/>
<path opacity="0.2" fill-rule="evenodd" clip-rule="evenodd" d="M23.9303 21.719L11.0843 29.1389C10.3668 29.5586 9.72662 29.5295 9.3138 29.1479L9.24536 29.2175L9.3138 29.2781C9.72662 29.6574 10.3668 29.6888 11.0843 29.2691L24.0186 21.7998L23.9303 21.719Z" fill="black"/>
<path opacity="0.12" fill-rule="evenodd" clip-rule="evenodd" d="M28.3366 19.1693L23.9192 21.719L23.9987 21.7997L28.3255 19.2995C28.9459 18.9404 29.2505 18.4691 29.2505 18C29.213 18.4309 28.8973 18.8394 28.3366 19.1693Z" fill="black"/>
<path opacity="0.25" fill-rule="evenodd" clip-rule="evenodd" d="M11.0755 6.86106L28.3366 16.8306C28.8973 17.1516 29.213 17.5713 29.2616 18C29.2616 17.5309 28.9569 17.0596 28.3366 16.7005L11.0755 6.73089C9.83703 6.01044 8.83258 6.61194 8.83258 8.05059V8.18076C8.83258 6.73987 9.83703 6.14959 11.0755 6.86106Z" fill="white"/>
<defs>
<linearGradient id="paint0_linear" x1="19.2974" y1="7.83594" x2="1.69171" y2="12.4501" gradientUnits="userSpaceOnUse">
<stop stop-color="#00A0FF"/>
<stop offset="0.00657" stop-color="#00A1FF"/>
<stop offset="0.2601" stop-color="#00BEFF"/>
<stop offset="0.5122" stop-color="#00D2FF"/>
<stop offset="0.7604" stop-color="#00DFFF"/>
<stop offset="1" stop-color="#00E3FF"/>
</linearGradient>
<linearGradient id="paint1_linear" x1="29.9516" y1="18" x2="8.53147" y2="18" gradientUnits="userSpaceOnUse">
<stop stop-color="#FFE000"/>
<stop offset="0.4087" stop-color="#FFBD00"/>
<stop offset="0.7754" stop-color="#FFA500"/>
<stop offset="1" stop-color="#FF9C00"/>
</linearGradient>
<linearGradient id="paint2_linear" x1="21.9774" y1="20.0676" x2="7.52676" y2="43.9905" gradientUnits="userSpaceOnUse">
<stop stop-color="#FF3A44"/>
<stop offset="1" stop-color="#C31162"/>
</linearGradient>
<linearGradient id="paint3_linear" x1="6.45759" y1="0.160863" x2="12.9047" y2="10.8453" gradientUnits="userSpaceOnUse">
<stop stop-color="#32A071"/>
<stop offset="0.0685" stop-color="#2DA771"/>
<stop offset="0.4762" stop-color="#15CF74"/>
<stop offset="0.8009" stop-color="#06E775"/>
<stop offset="1" stop-color="#00F076"/>
</linearGradient>
</defs>
</svg>
