<svg width="291" height="219" viewBox="0 0 291 219" fill="none" xmlns="http://www.w3.org/2000/svg">
<g clip-path="url(#clip0)">
<path d="M45.35 39.652C44.9186 39.1181 44.1235 39.0818 43.6409 39.5703C39.1151 44.1528 19.3015 65.5246 20.9191 86.9389C21.8671 104.698 34.9115 115.434 35.6384 116.019C36.2068 116.477 55.3605 136.933 124.074 171.089C124.252 171.128 124.899 171.351 125.278 170.881C125.278 170.881 125.81 170.457 125.532 169.784C93.9549 100.925 51.6554 47.4526 45.35 39.652Z" fill="white"/>
<path d="M116.976 189.312C116.753 188.549 115.819 188.549 115.819 188.549V188.503L28.2719 191.555C27.3955 191.586 26.8783 192.543 27.3262 193.296C37.1247 209.755 52.966 222.171 69.4137 218.158C81.168 215.258 107.776 196.713 116.555 190.435H116.532C117.196 189.796 116.976 189.312 116.976 189.312Z" fill="white"/>
<path d="M117.994 179.984C81.6278 155.489 13.7219 118.881 3.783 113.55C3.14587 113.209 2.34903 113.532 2.14499 114.224C-3.98022 135 4.95893 151.534 4.95893 151.534C14.658 172.005 33.1717 178.213 33.1717 178.213C41.754 181.71 50.3078 181.94 50.3078 181.94C51.6383 182.186 103.498 181.979 117.401 181.909C117.994 181.894 118.299 181.321 118.299 181.321C118.751 180.609 117.994 179.984 117.994 179.984Z" fill="white"/>
<path d="M109.862 2.83726C86.1371 8.98458 73.1314 33.0042 80.6832 58.7208C80.6888 58.7396 80.6928 58.7566 80.6974 58.7759C88.614 93.7921 127.494 151.306 135.856 163.371C136.438 163.965 136.913 163.713 136.913 163.713C137.808 163.486 137.738 162.613 137.738 162.613L137.758 162.624C149.681 43.6325 127.93 5.63093 124.657 0.672794C124.417 0.310253 123.994 0.116216 123.563 0.170683C119.254 0.719317 109.862 2.83726 109.862 2.83726Z" fill="white"/>
<path d="M210.46 30.4433C210.454 30.4263 210.449 30.4098 210.444 30.3922C210.226 29.611 204.155 8.53023 180.871 2.87254C180.871 2.87254 174.477 1.25784 167.501 0.198018C164.618 -0.239982 140.965 41.1028 153.184 162.722C153.293 163.518 153.872 163.704 153.872 163.704C154.732 164.049 155.16 163.217 155.16 163.217L155.165 163.229C163.767 150.833 202.433 93.5936 210.302 58.7465C210.302 58.7459 214.561 41.8801 210.46 30.4433Z" fill="white"/>
<path d="M175.042 188.58C175.042 188.58 174.984 188.588 174.894 188.612C174.225 188.786 173.831 189.536 174.132 190.158C174.187 190.27 174.264 190.377 174.372 190.466V190.478C182.928 196.61 208.899 214.734 221.404 218.24C221.404 218.24 243.773 225.851 263.608 193.332C264.065 192.581 263.547 191.613 262.667 191.582L175.049 188.563L175.042 188.58Z" fill="white"/>
<path d="M288.857 114.068C288.646 113.367 287.855 113.025 287.209 113.373C277.296 118.713 209.456 155.439 173.083 179.907V179.923C172.094 180.584 172.706 181.894 173.531 181.894C187.61 181.925 240.91 181.995 242.241 181.764C242.241 181.764 249.111 181.456 257.629 178.213C257.629 178.213 276.586 172.197 286.438 150.703C286.438 150.703 294.824 133.955 288.857 114.068Z" fill="white"/>
<path d="M270.058 86.822C271.46 64.6786 251.844 43.9848 247.344 39.5453C246.859 39.0675 246.073 39.1095 245.645 39.6383C239.388 47.3771 197.183 100.704 165.622 169.433H165.637C165.133 170.516 166.254 171.466 167.089 170.985C233.001 138.24 252.053 118.723 255.349 116.022C256.038 115.457 269.315 104.356 270.058 86.822Z" fill="white"/>
<path d="M123.011 164.368C64.3491 133.709 49.8906 117.742 47.7405 116.018C47.0136 115.433 33.9692 104.697 33.0211 86.9378C31.8014 70.7965 42.7577 54.6824 50.1657 45.7618C47.9104 42.8428 46.2571 40.7725 45.3506 39.6514C44.9192 39.1181 44.124 39.0812 43.6421 39.5697C39.1162 44.1522 19.3026 65.524 20.9202 86.9384C21.8682 104.698 34.9126 115.433 35.6396 116.019C36.2096 116.479 55.3918 136.948 124.075 171.089C124.253 171.127 124.9 171.35 125.279 170.881C125.279 170.881 125.811 170.457 125.533 169.783C124.7 167.966 123.857 166.163 123.011 164.368Z" fill="white"/>
<path d="M62.4087 181.94C62.4087 181.94 53.8549 181.71 45.2727 178.213C45.2727 178.213 26.7595 172.005 17.0604 151.534C17.0604 151.534 9.36485 137.281 13.1609 118.617C8.70613 116.197 5.43749 114.438 3.783 113.55C3.14587 113.209 2.34903 113.532 2.14499 114.224C-3.98022 135 4.95893 151.534 4.95893 151.534C14.658 172.005 33.1711 178.213 33.1711 178.213C41.7534 181.71 50.3072 181.94 50.3072 181.94C50.8824 182.047 60.9133 182.068 73.2354 182.053C67.0118 182.042 62.777 182.008 62.4087 181.94Z" fill="white"/>
<path d="M138.926 149.936C124.29 127.583 99.011 86.2547 92.7989 58.7765C92.7943 58.7572 92.7903 58.7407 92.7847 58.7215C85.2329 33.0048 98.2386 8.98463 121.964 2.83731C121.964 2.83731 123.45 2.502 125.51 2.064C125.158 1.45409 124.868 0.992832 124.657 0.672275C124.417 0.309733 123.994 0.115697 123.563 0.170731C119.253 0.719365 109.862 2.83731 109.862 2.83731C86.1371 8.98463 73.1314 33.0043 80.6832 58.7209C80.6888 58.7396 80.6928 58.7566 80.6974 58.7759C88.614 93.7921 127.494 151.306 135.856 163.371C136.438 163.965 136.913 163.713 136.913 163.713C137.808 163.486 137.738 162.613 137.738 162.613L137.758 162.624C138.193 158.284 138.579 154.063 138.926 149.936Z" fill="white"/>
<path d="M177.628 2.11386C175.108 1.55388 171.396 0.789083 167.501 0.197896C164.619 -0.240104 140.965 41.1027 153.184 162.721C153.293 163.518 153.872 163.704 153.872 163.704C154.732 164.05 155.16 163.217 155.16 163.217L155.165 163.23C156.988 160.602 160.165 155.955 164.11 149.938C155.972 52.8453 171.574 11.1082 177.628 2.11386Z" fill="white"/>
<path d="M186.989 188.975L175.05 188.563L175.042 188.579C175.042 188.579 174.984 188.587 174.894 188.611C174.225 188.786 173.831 189.536 174.132 190.158C174.187 190.27 174.264 190.377 174.372 190.466V190.478C182.928 196.61 208.899 214.735 221.405 218.24C221.405 218.24 227.199 220.208 235.503 217.858C222.061 213.523 196.3 195.63 186.989 188.975Z" fill="white"/>
<path d="M290.736 123.61C290.431 120.555 289.843 117.357 288.857 114.068C288.646 113.367 287.855 113.025 287.209 113.373C277.296 118.713 209.456 155.439 173.083 179.907V179.923C172.094 180.584 172.705 181.894 173.531 181.894C177.237 181.902 183.663 181.913 191.141 181.92C220.956 162.483 265.227 137.641 290.736 123.61Z" fill="white"/>
<path d="M252.981 45.683C250.535 42.777 248.468 40.6545 247.344 39.5459C246.86 39.0682 246.073 39.1101 245.645 39.6389C239.388 47.3777 197.183 100.704 165.622 169.433H165.637C165.133 170.517 166.254 171.466 167.089 170.986C171.638 168.725 175.957 166.531 180.07 164.397C206.748 107.843 240.001 62.4739 252.981 45.683Z" fill="white"/>
<path d="M40.5638 195.138H40.5615C40.5314 195.091 40.0193 194.414 39.5646 193.521C39.5197 193.446 39.4731 193.371 39.4282 193.296C39.3606 193.183 39.3214 193.065 39.2958 192.946C39.0548 192.377 38.8747 191.763 38.861 191.186L28.2725 191.556C27.3961 191.586 26.8789 192.544 27.3273 193.296C37.069 209.66 52.783 222.019 69.1273 218.22C57.9687 215.696 47.8081 206.546 40.5638 195.138Z" fill="white"/>
</g>
<defs>
<clipPath id="clip0">
<rect width="291" height="219" fill="white"/>
</clipPath>
</defs>
</svg>
