<?xml version="1.0" encoding="utf-8"?>
<!-- Generator: Adobe Illustrator 16.0.0, SVG Export Plug-In . SVG Version: 6.00 Build 0)  -->
<!DOCTYPE svg PUBLIC "-//W3C//DTD SVG 1.1//EN" "http://www.w3.org/Graphics/SVG/1.1/DTD/svg11.dtd">
<svg version="1.1" id="Layer_1" xmlns="http://www.w3.org/2000/svg" xmlns:xlink="http://www.w3.org/1999/xlink" x="0px" y="0px"
	 width="1000px" height="1000px" viewBox="0 0 1000 1000" enable-background="new 0 0 1000 1000" xml:space="preserve">
<path fill="#969595" d="M358.333,495.833c0-75,62.5-137.5,137.5-137.5s137.5,62.5,137.5,137.5s-62.5,137.5-137.5,137.5
	S358.333,575,358.333,495.833 M283.333,495.833c0,116.667,95.833,212.5,212.5,212.5c116.667,0,212.5-95.833,212.5-212.5
	c0-116.667-95.833-212.5-212.5-212.5C379.167,283.333,283.333,379.167,283.333,495.833 M670.833,275c0,29.167,20.834,50,50,50
	c29.167,0,50-20.833,50-50s-20.833-50-50-50C691.667,225,670.833,245.833,670.833,275 M329.167,833.333
	c-41.667,0-62.5-8.333-79.167-12.5c-20.833-8.333-33.333-16.666-50-29.166c-12.5-12.5-25-29.167-29.167-45.834
	c-4.167-20.833-8.333-41.666-12.5-83.333c0-45.833-4.167-58.333-4.167-166.667c0-112.5,0-125,4.167-166.667
	c0-41.667,8.333-62.5,12.5-79.167c8.333-20.833,16.667-33.333,29.167-45.833c12.5-16.667,29.167-25,50-25
	c16.667-4.167,37.5-12.5,79.167-12.5c45.833,0,58.333-4.167,166.666-4.167c112.5,0,125,0,166.667,4.167
	c41.667,0,62.5,8.333,79.167,12.5c20.833,8.333,33.333,16.667,50,29.167c12.5,12.5,25,29.167,29.166,45.833
	c8.334,16.667,16.667,37.5,16.667,79.167c0,45.833,4.167,58.333,4.167,166.667c0,112.5,0,125-4.167,166.667
	c0,41.666-8.333,62.5-12.5,79.166c-8.333,20.834-16.667,33.334-29.167,45.834s-29.166,25-50,29.166
	c-16.666,4.167-37.5,12.5-79.166,12.5c-45.834,0-58.334,4.167-166.667,4.167C387.5,841.667,375,841.667,329.167,833.333 M325,83.333
	c-45.833,0-75,8.333-100,20.833C200,112.5,175,125,150,150c-20.833,20.833-37.5,50-45.833,70.833
	C91.667,250,87.5,283.333,83.333,325c0,45.833-4.167,58.333-4.167,170.833c0,112.5,0,129.167,4.167,170.834
	c0,45.833,8.333,75,20.833,100c12.5,29.166,25,50,50,75s45.833,37.5,75,50c25,8.333,58.333,16.666,100,20.833
	C375,916.667,387.5,916.667,500,916.667s129.167,0,170.833-4.167c45.834,0,75-8.333,100-20.833c29.167-12.5,50-25,75-50
	s37.5-45.834,50-75c8.334-25,16.667-58.334,20.834-100c0-45.834,4.166-58.334,4.166-170.834s0-129.167-4.166-170.833
	c0-45.833-8.334-75-20.834-100c-12.5-29.167-25-50-50-75s-45.833-37.5-75-50c-25-8.333-58.333-16.667-100-20.833
	c-45.833,0-58.333,0-170.833,0S370.833,79.167,325,83.333"/>
</svg>
