<svg width="39" height="39" viewBox="0 0 39 39" fill="none" xmlns="http://www.w3.org/2000/svg">
<circle cx="19.5" cy="19.5" r="19.5" fill="#E5A7A3"/>
<g clip-path="url(#clip0)">
<path d="M28.3341 11.9768C27.247 10.7978 25.7554 10.1484 24.1336 10.1484C22.9214 10.1484 21.8113 10.5317 20.834 11.2874C20.3408 11.6689 19.894 12.1356 19.5 12.6804C19.1062 12.1358 18.6592 11.6689 18.1659 11.2874C17.1887 10.5317 16.0786 10.1484 14.8664 10.1484C13.2446 10.1484 11.7529 10.7978 10.6658 11.9768C9.59168 13.1421 9 14.734 9 16.4596C9 18.2356 9.66186 19.8613 11.0828 21.5759C12.354 23.1097 14.1809 24.6667 16.2966 26.4696C17.019 27.0853 17.8379 27.7832 18.6882 28.5266C18.9128 28.7234 19.201 28.8317 19.5 28.8317C19.7988 28.8317 20.0872 28.7234 20.3115 28.527C21.1618 27.7834 21.9811 27.0852 22.7039 26.4691C24.8192 24.6665 26.6462 23.1097 27.9173 21.5758C29.3383 19.8613 30 18.2356 30 16.4594C30 14.734 29.4083 13.1421 28.3341 11.9768Z" fill="white"/>
</g>
<defs>
<clipPath id="clip0">
<rect width="21" height="21" fill="white" transform="translate(9 9)"/>
</clipPath>
</defs>
</svg>
