<?xml version="1.0" encoding="utf-8"?>
<!-- Generator: Adobe Illustrator 16.0.0, SVG Export Plug-In . SVG Version: 6.00 Build 0)  -->
<!DOCTYPE svg PUBLIC "-//W3C//DTD SVG 1.1//EN" "http://www.w3.org/Graphics/SVG/1.1/DTD/svg11.dtd">
<svg version="1.1" id="Layer_1" xmlns="http://www.w3.org/2000/svg" xmlns:xlink="http://www.w3.org/1999/xlink" x="0px" y="0px"
	 width="190px" height="212px" viewBox="0 0 190 212" enable-background="new 0 0 190 212" xml:space="preserve">
<path fill="#FFFFFF" d="M181.133,90.887L26.134,2.288C23.462,0.761,20.487,0,17.512,0c-0.061,0-0.121,0.008-0.18,0.008
	c-0.4,0.004-0.799,0.024-1.196,0.056c-0.18,0.014-0.358,0.033-0.539,0.054c-0.311,0.034-0.621,0.078-0.93,0.129
	c-0.112,0.02-0.225,0.025-0.337,0.047l0.006,0.008c-1.931,0.356-3.816,1.037-5.567,2.053C3.405,5.467,0.103,11.2,0.103,17.401V194.6
	c0,6.201,3.302,11.935,8.667,15.047c1.75,1.017,3.635,1.698,5.566,2.055l-0.005,0.007c0.101,0.019,0.203,0.024,0.303,0.042
	c0.332,0.057,0.666,0.104,1,0.139c0.167,0.018,0.334,0.035,0.501,0.049c0.393,0.031,0.785,0.049,1.178,0.055
	c0.067,0.001,0.132,0.009,0.199,0.009c2.975,0,5.95-0.761,8.622-2.288l154.999-88.6c5.419-3.1,8.764-8.861,8.764-15.105
	c0,0,0-0.003,0-0.004c0,0,0-0.003,0-0.004c0,0,0-0.003,0-0.004c0,0,0-0.003,0-0.004C189.896,99.749,186.552,93.987,181.133,90.887z
	 M119.836,73.292L104.425,93.51l-39.21-51.441L119.836,73.292z M173.618,107.966L65.215,169.932l67.874-89.046l40.528,23.166
	c0.701,0.4,1.137,1.151,1.137,1.956C174.753,106.814,174.316,107.566,173.618,107.966z"/>
</svg>
