<?xml version="1.0" encoding="utf-8"?>
<!-- Generator: Adobe Illustrator 24.3.0, SVG Export Plug-In . SVG Version: 6.00 Build 0)  -->
<svg version="1.1" id="Layer_1" xmlns="http://www.w3.org/2000/svg" xmlns:xlink="http://www.w3.org/1999/xlink" x="0px" y="0px"
	 viewBox="0 0 24 24" style="enable-background:new 0 0 24 24;" xml:space="preserve">
<style type="text/css">
	.st0{clip-path:url(#SVGID_2_);}
	.st1{fill:#4F4F4F;}
</style>
<g>
	<defs>
		<rect id="SVGID_1_" x="0" y="0" width="24" height="24"/>
	</defs>
	<clipPath id="SVGID_2_">
		<use xlink:href="#SVGID_1_"  style="overflow:visible;"/>
	</clipPath>
	<g class="st0">
		<path class="st1" d="M23.7,11.3C23.7,11.3,23.7,11.3,23.7,11.3l-4.9-4.9c-0.4-0.4-1-0.4-1.3,0c-0.4,0.4-0.4,1,0,1.3l3.3,3.3H0.9
			C0.4,11.1,0,11.5,0,12c0,0.5,0.4,0.9,0.9,0.9h19.9l-3.3,3.3c-0.4,0.4-0.4,1,0,1.3c0.4,0.4,1,0.4,1.3,0l4.9-4.9c0,0,0,0,0,0
			C24.1,12.3,24.1,11.7,23.7,11.3z"/>
	</g>
</g>
</svg>
