<?xml version="1.0" encoding="utf-8"?>
<!-- Generator: Adobe Illustrator 24.3.0, SVG Export Plug-In . SVG Version: 6.00 Build 0)  -->
<svg version="1.1" id="Layer_1" xmlns="http://www.w3.org/2000/svg" xmlns:xlink="http://www.w3.org/1999/xlink" x="0px" y="0px"
	 viewBox="0 0 24 24" style="enable-background:new 0 0 24 24;" xml:space="preserve">
<style type="text/css">
	.st0{clip-path:url(#SVGID_2_);}
	.st1{fill:#FFFFFF;}
</style>
<g>
	<defs>
		<rect id="SVGID_1_" width="24" height="24"/>
	</defs>
	<clipPath id="SVGID_2_">
		<use xlink:href="#SVGID_1_"  style="overflow:visible;"/>
	</clipPath>
	<g class="st0">
		<path class="st1" d="M0.3,12.7C0.3,12.7,0.3,12.7,0.3,12.7l4.9,4.9c0.4,0.4,1,0.4,1.3,0c0.4-0.4,0.4-1,0-1.3l-3.3-3.3h19.9
			c0.5,0,0.9-0.4,0.9-0.9s-0.4-0.9-0.9-0.9H3.2l3.3-3.3c0.4-0.4,0.4-1,0-1.3c-0.4-0.4-1-0.4-1.3,0l-4.9,4.9c0,0,0,0,0,0
			C-0.1,11.7-0.1,12.3,0.3,12.7z"/>
	</g>
</g>
</svg>
