<svg width="24" height="24" viewBox="0 0 24 24" fill="none" xmlns="http://www.w3.org/2000/svg">
<path d="M21.7806 5.60484C21.4305 5.76532 21.0706 5.90076 20.7028 6.01072C21.1382 5.50179 21.4702 4.90295 21.6729 4.24764C21.7183 4.10076 21.6712 3.93998 21.5544 3.84391C21.4377 3.74777 21.2756 3.73625 21.1471 3.81494C20.3661 4.29371 19.5234 4.63778 18.6398 4.83898C17.7497 3.94013 16.5408 3.42859 15.2911 3.42859C12.6532 3.42859 10.507 5.64659 10.507 8.37286C10.507 8.58758 10.5201 8.80111 10.5462 9.01167C7.27268 8.71463 4.2294 7.05178 2.13958 4.40241C2.0651 4.30797 1.95037 4.25708 1.8329 4.26681C1.71536 4.27632 1.60976 4.34483 1.55038 4.4501C1.12652 5.20177 0.90244 6.06147 0.90244 6.93617C0.90244 8.12753 1.31401 9.25789 2.04102 10.1411C1.81996 10.062 1.60544 9.96313 1.4007 9.84566C1.29079 9.78243 1.15664 9.7834 1.04744 9.84811C0.938169 9.91283 0.869659 10.0319 0.866783 10.1619C0.86628 10.1839 0.86628 10.2058 0.86628 10.228C0.86628 12.0063 1.79236 13.6073 3.20821 14.48C3.08658 14.4674 2.96501 14.4492 2.84424 14.4254C2.71973 14.4008 2.59169 14.4459 2.50773 14.544C2.42361 14.6421 2.39579 14.7788 2.43454 14.9036C2.95861 16.5946 4.3079 17.8384 5.93907 18.2176C4.58618 19.0934 3.03906 19.5521 1.41494 19.5521C1.07605 19.5521 0.735226 19.5315 0.40166 19.4907C0.235955 19.4704 0.0775118 19.5715 0.0210788 19.7344C-0.0353542 19.8973 0.0244576 20.0789 0.165432 20.1723C2.25187 21.5549 4.6644 22.2857 7.14206 22.2857C12.0128 22.2857 15.0599 19.9119 16.7582 17.9205C18.8761 15.4374 20.0907 12.1507 20.0907 8.90327C20.0907 8.7676 20.0887 8.6306 20.0847 8.49404C20.9203 7.84342 21.6397 7.05601 22.2251 6.151C22.314 6.01355 22.3043 5.83189 22.2013 5.70536C22.0985 5.57876 21.927 5.53782 21.7806 5.60484Z" fill="#969595"/>
</svg>
