<svg width="140" height="60" viewBox="0 0 140 60" fill="none" xmlns="http://www.w3.org/2000/svg">
<g filter="url(#filter0_d)">
<path fill-rule="evenodd" clip-rule="evenodd" d="M15.9922 5.07323C16.1384 5.07323 17.3212 5.07164 19.3379 5.06891C37.7988 5.04397 126.136 4.92461 128.814 5.07247C130.225 5.15037 131.65 5.61718 132.714 6.53942C133.764 7.44989 134.5 8.83553 134.5 10.8443V10.8696V10.8954V10.9217V10.9485V10.9756V11.0033V11.0313V11.0598V11.0888V11.1182V11.148V11.1783V11.209V11.2401V11.2717V11.3037V11.3361V11.3689V11.4022V11.4358V11.4699V11.5044V11.5394V11.5747V11.6104V11.6466V11.6832V11.7201V11.7575V11.7952V11.8334V11.872V11.9109V11.9503V11.99V12.0301V12.0706V12.1115V12.1528V12.1944V12.2365V12.2789V12.3216V12.3648V12.4083V12.4522V12.4965V12.5411V12.5861V12.6314V12.6771V12.7232V12.7696V12.8163V12.8634V12.9109V12.9587V13.0069V13.0554V13.1042V13.1534V13.2029V13.2527V13.3029V13.3534V13.4042V13.4554V13.5069V13.5587V13.6108V13.6633V13.716V13.7691V13.8225V13.8762V13.9302V13.9845V14.0392V14.0941V14.1493V14.2048V14.2607V14.3168V14.3732V14.4299V14.4869V14.5442V14.6017V14.6596V14.7177V14.7761V14.8348V14.8938V14.953V15.0125V15.0723V15.1323V15.1926V15.2532V15.314V15.3751V15.4364V15.498V15.5599V15.622V15.6843V15.747V15.8098V15.8729V15.9362V15.9998V16.0636V16.1277V16.1919V16.2564V16.3212V16.3862V16.4513V16.5168V16.5824V16.6483V16.7143V16.7806V16.8471V16.9139V16.9808V17.0479V17.1153V17.1828V17.2506V17.3185V17.3867V17.455V17.5235V17.5923V17.6612V17.7303V17.7996V17.8691V17.9387V18.0086V18.0786V18.1488V18.2191V18.2897V18.3604V18.4313V18.5023V18.5735V18.6449V18.7164V18.7881V18.86V18.932V19.0041V19.0765V19.1489V19.2215V19.2943V19.3671V19.4402V19.5133V19.5866V19.6601V19.7337V19.8074V19.8812V19.9552V20.0292V20.1034V20.1778V20.2522V20.3268V20.4015V20.4763V20.5512V20.6262V20.7013V20.7765V20.8518V20.9273V21.0028V21.0784V21.1541V21.23V21.3059V21.3819V21.4579V21.5341V21.6104V21.6867V21.7631V21.8396V21.9161V21.9928V22.0695V22.1463V22.2231V22.3V22.377V22.454V22.5311V22.6083V22.6855V22.7628V22.8401V22.9174V22.9949V23.0723V23.1498V23.2274V23.3049V23.3826V23.4602V23.5379V23.6156V23.6934V23.7712V23.849V23.9268V24.0047V24.0825V24.1604V24.2383V24.3163V24.3942V24.4721V24.5501V24.628V24.706V24.784V24.8619V24.9399V25.0179V25.0958V25.1738V25.2517V25.3296V25.4075V25.4854V25.5633V25.6412V25.719V25.7968V25.8746V25.9524V26.0301V26.1078V26.1855V26.2631V26.3407V26.4183V26.4958V26.5733V26.6507V26.7281V26.8054V26.8827V26.9599V27.0371V27.1142V27.1913V27.2683V27.3452V27.4221V27.4989V27.5756V27.6523V27.7288V27.8054V27.8818V27.9582V28.0344V28.1106V28.1867V28.2628V28.3387V28.4145V28.4903V28.5659V28.6415V28.717V28.7923V28.8676V28.9427V29.0178V29.0927V29.1675V29.2423V29.3169V29.3914V29.4657V29.54V29.6141V29.6881V29.762V29.8357V29.9093V29.9828V30.0562V30.1294V30.2024V30.2754V30.3482V30.4208V30.4933V30.5657V30.6379V30.7099V30.7818V30.8536V30.9252V30.9966V31.0679V31.139V31.2099V31.2807V31.3513V31.4217V31.4919V31.562V31.6319V31.7016V31.7712V31.8405V31.9097V31.9787V32.0475V32.1161V32.1845V32.2527V32.3207V32.3885V32.4561V32.5235V32.5907V32.6577V32.7245V32.7911V32.8575V32.9236V32.9896V33.0553V33.1208V33.186V33.2511V33.3159V33.3805V33.4448V33.5089V33.5728V33.6365V33.6999V33.7631V33.826V33.8887V33.9511V34.0133V34.0752V34.1369V34.1984V34.2595V34.3204V34.3811V34.4415V34.5016V34.5615V34.6211V34.6804V34.7394V34.7982V34.8567V34.9149V34.9729V35.0305V35.0879V35.145V35.2018V35.2583V35.3145V35.3704V35.426V35.4814V35.5364V35.5911V35.6455V35.6996V35.7535V35.8069V35.8601V35.913V35.9656V36.0178V36.0697V36.1213V36.1726V36.2235V36.2741V36.3244V36.3744V36.424V36.4733V36.5222V36.5708V36.6191V36.667V36.7146V36.7618V36.8087V36.8552V36.9014V36.9472V36.9927V37.0378V37.0825V37.1269V37.1709V37.2145V37.2578V37.3007V37.3432V37.3854V37.4272V37.4685V37.5096V37.5502V37.5904V37.6303V37.6698V37.7089V37.7475V37.7858V37.8237V37.8612V37.8983V37.935V37.9713V38.0072V38.0426V38.0777V38.1123V38.1466V38.1804V38.2138V38.2468V38.2793V38.3114V38.3431V38.3744V38.4053V38.4357V38.4656V38.4952V38.5243V38.5529V38.5811V38.6089V38.6362V38.6631V38.6895V38.7155V38.741V38.7661V38.7907V38.8148V38.8385V38.8617V38.8845V38.9068V38.9286V38.9499V38.9708V38.9912V39.0111V39.0305V39.0495V39.0679V39.0859V39.1034V39.1204V39.1369V39.1529V39.1684V39.1835V39.198V39.212V39.2255V39.2385V39.251V39.263V39.2745V39.2855V39.2959V39.3059V39.3153V39.3242V39.3325V39.3404V39.3477V39.3545V39.3607V39.3665V39.3716V39.3763V39.3804V39.384V39.387V39.3895V39.3914V39.3928V39.3936C134.5 39.3938 134.5 39.3939 135 39.3939H134.5C134.5 40.6603 134.488 42.0402 133.843 43.1185C133.235 44.1344 131.979 44.9999 129.174 44.9999C128.237 44.9999 127.155 44.985 125.413 44.9611L125.412 44.9611C120.446 44.893 110.117 44.7513 82.5015 44.6698C82.2253 44.669 82.0008 44.8922 82 45.1684C81.9992 45.4445 82.2224 45.669 82.4985 45.6698C110.096 45.7513 120.453 45.8931 125.424 45.9612C127.165 45.9851 128.245 45.9999 129.174 45.9999C132.195 45.9999 133.852 45.0501 134.701 43.6319C135.5 42.2956 135.5 40.6512 135.5 39.4466V39.3939H135C135.244 39.3939 135.369 39.3939 135.433 39.3938C135.5 39.3938 135.5 39.3937 135.5 39.3936V39.3928V39.3914V39.3895V39.387V39.384V39.3804V39.3763V39.3716V39.3665V39.3607V39.3545V39.3477V39.3404V39.3325V39.3242V39.3153V39.3059V39.2959V39.2855V39.2745V39.263V39.251V39.2385V39.2255V39.212V39.198V39.1835V39.1684V39.1529V39.1369V39.1204V39.1034V39.0859V39.0679V39.0495V39.0305V39.0111V38.9912V38.9708V38.9499V38.9286V38.9068V38.8845V38.8617V38.8385V38.8148V38.7907V38.7661V38.741V38.7155V38.6895V38.6631V38.6362V38.6089V38.5811V38.5529V38.5243V38.4952V38.4656V38.4357V38.4053V38.3744V38.3431V38.3114V38.2793V38.2468V38.2138V38.1804V38.1466V38.1123V38.0777V38.0426V38.0072V37.9713V37.935V37.8983V37.8612V37.8237V37.7858V37.7475V37.7089V37.6698V37.6303V37.5904V37.5502V37.5096V37.4685V37.4272V37.3854V37.3432V37.3007V37.2578V37.2145V37.1709V37.1269V37.0825V37.0378V36.9927V36.9472V36.9014V36.8552V36.8087V36.7618V36.7146V36.667V36.6191V36.5708V36.5222V36.4733V36.424V36.3744V36.3244V36.2741V36.2235V36.1726V36.1213V36.0697V36.0178V35.9656V35.913V35.8601V35.8069V35.7535V35.6996V35.6455V35.5911V35.5364V35.4814V35.426V35.3704V35.3145V35.2583V35.2018V35.145V35.0879V35.0305V34.9729V34.9149V34.8567V34.7982V34.7394V34.6804V34.6211V34.5615V34.5016V34.4415V34.3811V34.3204V34.2595V34.1984V34.1369V34.0752V34.0133V33.9511V33.8887V33.826V33.7631V33.6999V33.6365V33.5728V33.5089V33.4448V33.3805V33.3159V33.2511V33.186V33.1208V33.0553V32.9896V32.9236V32.8575V32.7911V32.7245V32.6577V32.5907V32.5235V32.4561V32.3885V32.3207V32.2527V32.1845V32.1161V32.0475V31.9787V31.9097V31.8405V31.7712V31.7016V31.6319V31.562V31.4919V31.4217V31.3513V31.2807V31.2099V31.139V31.0679V30.9966V30.9252V30.8536V30.7818V30.7099V30.6379V30.5657V30.4933V30.4208V30.3482V30.2754V30.2024V30.1294V30.0562V29.9828V29.9093V29.8357V29.762V29.6881V29.6141V29.54V29.4657V29.3914V29.3169V29.2423V29.1675V29.0927V29.0178V28.9427V28.8676V28.7923V28.717V28.6415V28.5659V28.4903V28.4145V28.3387V28.2628V28.1867V28.1106V28.0344V27.9582V27.8818V27.8054V27.7288V27.6523V27.5756V27.4989V27.4221V27.3452V27.2683V27.1913V27.1142V27.0371V26.9599V26.8827V26.8054V26.7281V26.6507V26.5733V26.4958V26.4183V26.3407V26.2631V26.1855V26.1078V26.0301V25.9524V25.8746V25.7968V25.719V25.6412V25.5633V25.4854V25.4075V25.3296V25.2517V25.1738V25.0958V25.0179V24.9399V24.8619V24.784V24.706V24.628V24.5501V24.4721V24.3942V24.3163V24.2383V24.1604V24.0825V24.0047V23.9268V23.849V23.7712V23.6934V23.6156V23.5379V23.4602V23.3826V23.3049V23.2274V23.1498V23.0723V22.9949V22.9174V22.8401V22.7628V22.6855V22.6083V22.5311V22.454V22.377V22.3V22.2231V22.1463V22.0695V21.9928V21.9161V21.8396V21.7631V21.6867V21.6104V21.5341V21.4579V21.3819V21.3059V21.23V21.1541V21.0784V21.0028V20.9273V20.8518V20.7765V20.7013V20.6262V20.5512V20.4763V20.4015V20.3268V20.2522V20.1778V20.1034V20.0292V19.9552V19.8812V19.8074V19.7337V19.6601V19.5866V19.5133V19.4402V19.3671V19.2943V19.2215V19.1489V19.0765V19.0041V18.932V18.86V18.7881V18.7164V18.6449V18.5735V18.5023V18.4313V18.3604V18.2897V18.2191V18.1488V18.0786V18.0086V17.9387V17.8691V17.7996V17.7303V17.6612V17.5923V17.5235V17.455V17.3867V17.3185V17.2506V17.1828V17.1153V17.0479V16.9808V16.9139V16.8471V16.7806V16.7143V16.6483V16.5824V16.5168V16.4513V16.3862V16.3212V16.2564V16.1919V16.1277V16.0636V15.9998V15.9362V15.8729V15.8098V15.747V15.6843V15.622V15.5599V15.498V15.4364V15.3751V15.314V15.2532V15.1926V15.1323V15.0723V15.0125V14.953V14.8938V14.8348V14.7761V14.7177V14.6596V14.6017V14.5442V14.4869V14.4299V14.3732V14.3168V14.2607V14.2048V14.1493V14.0941V14.0392V13.9845V13.9302V13.8762V13.8225V13.7691V13.716V13.6633V13.6108V13.5587V13.5069V13.4554V13.4042V13.3534V13.3029V13.2527V13.2029V13.1534V13.1042V13.0554V13.0069V12.9587V12.9109V12.8634V12.8163V12.7696V12.7232V12.6771V12.6314V12.5861V12.5411V12.4965V12.4522V12.4083V12.3648V12.3216V12.2789V12.2365V12.1944V12.1528V12.1115V12.0706V12.0301V11.99V11.9503V11.9109V11.872V11.8334V11.7952V11.7575V11.7201V11.6832V11.6466V11.6104V11.5747V11.5394V11.5044V11.4699V11.4358V11.4022V11.3689V11.3361V11.3037V11.2717V11.2401V11.209V11.1783V11.148V11.1182V11.0888V11.0598V11.0313V11.0033V10.9756V10.9485V10.9217V10.8954V10.8696V10.8443C135.5 8.56228 134.651 6.89492 133.369 5.78382C132.101 4.68448 130.447 4.16113 128.869 4.07399C126.153 3.92405 37.4661 4.0443 19.2344 4.06903L19.2344 4.06903L19.2342 4.06903C17.2775 4.07168 16.1323 4.07323 15.9922 4.07323C14.3949 4.07323 13.039 4.78477 12.5314 5.16217L12.5069 5.18041L12.4848 5.2015C11.0444 6.57469 7.78147 9.73211 6.30419 11.33C5.4989 12.201 5.03856 13.2744 4.78536 14.2409C4.53446 15.1985 4.47797 16.0852 4.50688 16.6338V39.3939C4.50688 39.67 4.73074 39.8939 5.00688 39.8939C5.28302 39.8939 5.50688 39.67 5.50688 39.3939V16.6202V16.6062L5.5061 16.5922C5.48129 16.1495 5.5259 15.36 5.75271 14.4943C5.97942 13.629 6.37905 12.7221 7.03846 12.0088C8.4828 10.4466 11.6953 7.33625 13.1513 5.94768C13.5534 5.65835 14.6861 5.07323 15.9922 5.07323ZM66.5 54.4999C66.7761 54.4999 67 54.7237 67 54.9999C67 55.276 66.7761 55.4999 66.5 55.4999H5.49999C5.22385 55.4999 4.99999 55.276 4.99999 54.9999C4.99999 54.7237 5.22385 54.4999 5.49999 54.4999H66.5Z" fill="url(#paint0_linear)"/>
</g>
<defs>
<filter id="filter0_d" x="0.5" y="0" width="139" height="59.4999" filterUnits="userSpaceOnUse" color-interpolation-filters="sRGB">
<feFlood flood-opacity="0" result="BackgroundImageFix"/>
<feColorMatrix in="SourceAlpha" type="matrix" values="0 0 0 0 0 0 0 0 0 0 0 0 0 0 0 0 0 0 127 0"/>
<feOffset/>
<feGaussianBlur stdDeviation="2"/>
<feColorMatrix type="matrix" values="0 0 0 0 1 0 0 0 0 0.320755 0 0 0 0 0 0 0 0 1 0"/>
<feBlend mode="normal" in2="BackgroundImageFix" result="effect1_dropShadow"/>
<feBlend mode="normal" in="SourceGraphic" in2="effect1_dropShadow" result="shape"/>
</filter>
<linearGradient id="paint0_linear" x1="135.5" y1="-73.2493" x2="-4.26528" y2="-71.4163" gradientUnits="userSpaceOnUse">
<stop stop-color="#FF5F00"/>
<stop offset="1" stop-color="#FF5F00"/>
</linearGradient>
</defs>
</svg>
