<svg width="39" height="69" viewBox="0 0 39 69" fill="none" xmlns="http://www.w3.org/2000/svg">
<path d="M6.696 58L3.168 49.492H4.524L7.392 56.392L10.26 49.492H11.616L8.088 58H6.696ZM13.6731 58H12.5091V52.252H13.6611L13.6731 58ZM13.0851 51.004C12.8771 51.004 12.7011 50.932 12.5571 50.788C12.4131 50.636 12.3411 50.456 12.3411 50.248C12.3411 50.04 12.4131 49.864 12.5571 49.72C12.7011 49.576 12.8771 49.504 13.0851 49.504C13.2931 49.504 13.4691 49.576 13.6131 49.72C13.7571 49.864 13.8291 50.04 13.8291 50.248C13.8291 50.456 13.7571 50.636 13.6131 50.788C13.4691 50.932 13.2931 51.004 13.0851 51.004ZM17.7046 58.144C17.2886 58.144 16.8966 58.068 16.5286 57.916C16.1686 57.756 15.8526 57.54 15.5806 57.268C15.3086 56.996 15.0926 56.676 14.9326 56.308C14.7806 55.94 14.7046 55.548 14.7046 55.132C14.7046 54.716 14.7766 54.324 14.9206 53.956C15.0726 53.588 15.2726 53.268 15.5206 52.996C15.7766 52.724 16.0726 52.512 16.4086 52.36C16.7446 52.2 17.1046 52.12 17.4886 52.12C17.8806 52.12 18.2406 52.188 18.5686 52.324C18.9046 52.46 19.1926 52.672 19.4326 52.96C19.6806 53.248 19.8726 53.616 20.0086 54.064C20.1446 54.504 20.2126 55.032 20.2126 55.648H15.9406C15.9966 55.856 16.0846 56.052 16.2046 56.236C16.3246 56.412 16.4646 56.568 16.6246 56.704C16.7926 56.832 16.9766 56.932 17.1766 57.004C17.3846 57.076 17.6006 57.112 17.8246 57.112C18.1286 57.112 18.4086 57.056 18.6646 56.944C18.9286 56.832 19.1526 56.684 19.3366 56.5L20.0566 57.22C19.7766 57.5 19.4326 57.724 19.0246 57.892C18.6246 58.06 18.1846 58.144 17.7046 58.144ZM17.4886 53.176C17.3046 53.176 17.1286 53.212 16.9606 53.284C16.8006 53.356 16.6486 53.456 16.5046 53.584C16.3686 53.712 16.2486 53.864 16.1446 54.04C16.0486 54.216 15.9766 54.408 15.9286 54.616H18.9646C18.9486 54.424 18.9046 54.24 18.8326 54.064C18.7606 53.888 18.6606 53.736 18.5326 53.608C18.4046 53.472 18.2526 53.368 18.0766 53.296C17.9086 53.216 17.7126 53.176 17.4886 53.176ZM22.7719 58L20.8399 52.252H22.0759L23.4199 56.596L24.8359 52.252H25.8679L27.2839 56.56L28.6159 52.252H29.8519L27.9199 58H26.6479L25.4479 54.484L25.3519 53.932L25.2559 54.484L24.0679 58H22.7719ZM33.3363 56.8C33.4083 56.736 33.4723 56.664 33.5283 56.584C33.5843 56.504 33.6123 56.412 33.6123 56.308C33.6123 56.18 33.5643 56.072 33.4683 55.984C33.3803 55.896 33.2683 55.824 33.1323 55.768C33.0043 55.704 32.8683 55.656 32.7243 55.624C32.5803 55.592 32.4603 55.564 32.3643 55.54C32.1003 55.476 31.8523 55.4 31.6203 55.312C31.3883 55.216 31.1843 55.104 31.0083 54.976C30.8403 54.84 30.7043 54.684 30.6003 54.508C30.5043 54.324 30.4563 54.108 30.4563 53.86C30.4563 53.628 30.5123 53.412 30.6243 53.212C30.7363 53.004 30.8843 52.824 31.0683 52.672C31.2603 52.512 31.4803 52.388 31.7283 52.3C31.9843 52.204 32.2523 52.156 32.5323 52.156C32.7803 52.156 33.0163 52.192 33.2403 52.264C33.4643 52.336 33.6643 52.436 33.8403 52.564C34.0243 52.684 34.1763 52.832 34.2963 53.008C34.4243 53.184 34.5083 53.38 34.5483 53.596L33.5043 53.848C33.4563 53.656 33.3523 53.496 33.1923 53.368C33.0323 53.24 32.8123 53.176 32.5323 53.176C32.4363 53.176 32.3363 53.192 32.2323 53.224C32.1283 53.248 32.0323 53.288 31.9443 53.344C31.8563 53.4 31.7803 53.468 31.7163 53.548C31.6603 53.628 31.6323 53.72 31.6323 53.824C31.6323 53.936 31.6643 54.032 31.7283 54.112C31.8003 54.192 31.8843 54.26 31.9803 54.316C32.0763 54.364 32.1803 54.404 32.2923 54.436C32.4043 54.468 32.5083 54.496 32.6043 54.52C33.0283 54.624 33.3803 54.736 33.6603 54.856C33.9403 54.976 34.1643 55.108 34.3323 55.252C34.5003 55.396 34.6163 55.556 34.6803 55.732C34.7523 55.9 34.7883 56.092 34.7883 56.308C34.7883 56.564 34.7283 56.804 34.6083 57.028C34.4963 57.252 34.3363 57.448 34.1283 57.616C33.9283 57.776 33.6843 57.904 33.3963 58C33.1163 58.088 32.8123 58.132 32.4843 58.132C31.9883 58.132 31.5443 58.012 31.1523 57.772C30.7683 57.524 30.5083 57.196 30.3723 56.788L31.3563 56.344C31.4843 56.624 31.6483 56.816 31.8483 56.92C32.0483 57.016 32.2763 57.064 32.5323 57.064C32.8523 57.064 33.1203 56.976 33.3363 56.8Z" fill="#828181"/>
<circle cx="19.5" cy="19.5" r="19.5" fill="#D0E6A3"/>
<g clip-path="url(#clip0)">
<path d="M19 12.6449C23.5855 12.6449 27.7438 15.0491 30.8122 18.9542C31.0626 19.2741 31.0626 19.7211 30.8122 20.041C27.7438 23.9508 23.5855 26.355 19 26.355C14.4145 26.355 10.2562 23.9508 7.18779 20.0457C6.9374 19.7258 6.9374 19.2788 7.18779 18.9589C10.2562 15.0491 14.4145 12.6449 19 12.6449ZM18.6711 24.3272C21.7149 24.5107 24.2286 22.1065 24.0371 19.1847C23.88 16.7758 21.8426 14.8233 19.3289 14.6727C16.2851 14.4892 13.7714 16.8934 13.9629 19.8152C14.1249 22.2194 16.1623 24.1719 18.6711 24.3272ZM18.8233 22.0971C20.463 22.1959 21.818 20.902 21.71 19.3306C21.6266 18.032 20.5268 16.9828 19.1718 16.8981C17.5321 16.7993 16.177 18.0932 16.2851 19.6646C16.3734 20.9679 17.4732 22.0171 18.8233 22.0971Z" fill="white"/>
</g>
<defs>
<clipPath id="clip0">
<rect width="24" height="23" fill="white" transform="matrix(-1 0 0 1 31 8)"/>
</clipPath>
</defs>
</svg>
