<svg width="26" height="26" viewBox="0 0 26 26" fill="none" xmlns="http://www.w3.org/2000/svg">
<g clip-path="url(#clip0)">
<path d="M25.4643 6.75878C25.1646 5.64497 24.2864 4.76701 23.1728 4.46708C21.1382 3.91028 12.9997 3.91028 12.9997 3.91028C12.9997 3.91028 4.86149 3.91028 2.82688 4.44586C1.73469 4.74559 0.83511 5.64516 0.535383 6.75878C0 8.79319 0 13.0124 0 13.0124C0 13.0124 0 17.2528 0.535383 19.266C0.835308 20.3796 1.71326 21.2578 2.82708 21.5577C4.88291 22.1145 12.9999 22.1145 12.9999 22.1145C12.9999 22.1145 21.1382 22.1145 23.1728 21.5789C24.2866 21.2792 25.1646 20.401 25.4645 19.2874C25.9999 17.2528 25.9999 13.0338 25.9999 13.0338C25.9999 13.0338 26.0213 8.79319 25.4643 6.75878Z" fill="#969595"/>
<path d="M10.4085 16.9102L17.1761 13.0124L10.4085 9.1145V16.9102Z" fill="#1B1B1B"/>
</g>
<defs>
<clipPath id="clip0">
<rect width="26" height="26" fill="white"/>
</clipPath>
</defs>
</svg>
