<?xml version="1.0" encoding="utf-8"?>
<!-- Generator: Adobe Illustrator 16.0.0, SVG Export Plug-In . SVG Version: 6.00 Build 0)  -->
<!DOCTYPE svg PUBLIC "-//W3C//DTD SVG 1.1//EN" "http://www.w3.org/Graphics/SVG/1.1/DTD/svg11.dtd">
<svg version="1.1" id="Layer_1" xmlns="http://www.w3.org/2000/svg" xmlns:xlink="http://www.w3.org/1999/xlink" x="0px" y="0px"
	 width="26.25px" height="18.378px" viewBox="0.861 4.563 26.25 18.378" enable-background="new 0.861 4.563 26.25 18.378"
	 xml:space="preserve">
<path fill="#969595" d="M26.57,7.439c-0.303-1.125-1.189-2.011-2.313-2.314c-2.054-0.562-10.271-0.562-10.271-0.562
	s-8.216,0-10.271,0.541c-1.102,0.302-2.01,1.21-2.313,2.335c-0.541,2.054-0.541,6.313-0.541,6.313s0,4.281,0.541,6.314
	c0.303,1.123,1.189,2.011,2.314,2.313c2.075,0.563,10.271,0.563,10.271,0.563s8.218,0,10.271-0.541
	c1.124-0.303,2.012-1.188,2.313-2.313c0.541-2.055,0.541-6.313,0.541-6.313S27.133,9.493,26.57,7.439z M11.37,17.688V9.818
	l6.833,3.935L11.37,17.688z"/>
</svg>
